<?xml version="1.0" encoding="utf-8"?>
<!-- Generator: Adobe Illustrator 22.0.1, SVG Export Plug-In . SVG Version: 6.00 Build 0)  -->
<!DOCTYPE svg PUBLIC "-//W3C//DTD SVG 1.1//EN" "http://www.w3.org/Graphics/SVG/1.1/DTD/svg11.dtd">
<svg version="1.1" id="Calque_1" xmlns="http://www.w3.org/2000/svg" xmlns:xlink="http://www.w3.org/1999/xlink" x="0px" y="0px"
	 viewBox="0 0 360 300" style="enable-background:new 0 0 360 300;" xml:space="preserve">
<style type="text/css">
	.st0{fill:url(#SVGID_1_);}
	.st1{fill:url(#SVGID_2_);}
	.st2{fill:url(#SVGID_3_);}
	.st3{fill:url(#SVGID_4_);}
	.st4{fill:url(#SVGID_5_);}
	.st5{fill:url(#SVGID_6_);}
	.st6{fill:url(#SVGID_7_);}
	.st7{fill:url(#SVGID_8_);}
	.st8{fill:url(#SVGID_9_);}
	.st9{fill:url(#SVGID_10_);}
	.st10{fill:url(#SVGID_11_);}
	.st11{fill:url(#SVGID_12_);}
	.st12{fill:url(#SVGID_13_);}
	.st13{fill:url(#SVGID_14_);}
	.st14{fill:url(#SVGID_15_);}
	.st15{fill:url(#SVGID_16_);}
	.st16{fill:url(#SVGID_17_);}
	.st17{fill:url(#SVGID_18_);}
	.st18{fill:url(#SVGID_19_);}
	.st19{fill:url(#SVGID_20_);}
	.st20{fill:url(#SVGID_21_);}
	.st21{fill:url(#SVGID_22_);}
	.st22{fill:url(#SVGID_23_);}
	.st23{fill:url(#SVGID_24_);}
	.st24{fill:none;stroke:#FFFFFF;stroke-width:0.288;stroke-miterlimit:10;}
</style>
<g>
	<g>
		<g>
			
				<linearGradient id="SVGID_1_" gradientUnits="userSpaceOnUse" x1="206.3075" y1="-59.9095" x2="206.3384" y2="-59.9095" gradientTransform="matrix(1 0 0 1 0 328.0111)">
				<stop  offset="0" style="stop-color:#CC0B36"/>
				<stop  offset="1" style="stop-color:#FBBA00"/>
			</linearGradient>
			<path class="st0" d="M206.3,268.2c0-0.1,0-0.1,0-0.2C206.3,268.1,206.3,268.2,206.3,268.2z"/>
			
				<linearGradient id="SVGID_2_" gradientUnits="userSpaceOnUse" x1="199.7088" y1="-65.1595" x2="199.8205" y2="-65.1595" gradientTransform="matrix(1 0 0 1 0 328.0111)">
				<stop  offset="0" style="stop-color:#CC0B36"/>
				<stop  offset="1" style="stop-color:#FBBA00"/>
			</linearGradient>
			<path class="st1" d="M199.7,263.2l0.1-0.1c0-0.2,0-0.4,0-0.6L199.7,263.2z"/>
			
				<linearGradient id="SVGID_3_" gradientUnits="userSpaceOnUse" x1="289.029" y1="-67.7095" x2="289.6311" y2="-67.7095" gradientTransform="matrix(1 0 0 1 0 328.0111)">
				<stop  offset="0" style="stop-color:#CC0B36"/>
				<stop  offset="1" style="stop-color:#FBBA00"/>
			</linearGradient>
			<path class="st2" d="M289.3,259.2c0.6,0.9-0.9,1.2-0.1,2.2C289.2,261,290,259.8,289.3,259.2z"/>
			
				<linearGradient id="SVGID_4_" gradientUnits="userSpaceOnUse" x1="289.2912" y1="-66.5595" x2="289.3766" y2="-66.5595" gradientTransform="matrix(1 0 0 1 0 328.0111)">
				<stop  offset="0" style="stop-color:#CC0B36"/>
				<stop  offset="1" style="stop-color:#FBBA00"/>
			</linearGradient>
			<path class="st3" d="M289.3,261.4L289.3,261.4l0.1,0.1C289.3,261.4,289.3,261.4,289.3,261.4z"/>
			
				<linearGradient id="SVGID_5_" gradientUnits="userSpaceOnUse" x1="325.671" y1="-68.8095" x2="325.7951" y2="-68.8095" gradientTransform="matrix(1 0 0 1 0 328.0111)">
				<stop  offset="0" style="stop-color:#CC0B36"/>
				<stop  offset="1" style="stop-color:#FBBA00"/>
			</linearGradient>
			<path class="st4" d="M325.7,259c0,0.2,0.1,0.3,0.1,0.4C325.8,259.4,325.7,259.3,325.7,259z"/>
			
				<linearGradient id="SVGID_6_" gradientUnits="userSpaceOnUse" x1="320.6343" y1="-67.5802" x2="320.9643" y2="-67.5802" gradientTransform="matrix(1 0 0 1 0 328.0111)">
				<stop  offset="0" style="stop-color:#CC0B36"/>
				<stop  offset="1" style="stop-color:#FBBA00"/>
			</linearGradient>
			<path class="st5" d="M321,260.5c-0.1-0.1-0.2-0.2-0.3-0.1c0,0.1,0,0.1,0,0.1C320.7,260.4,320.8,260.3,321,260.5z"/>
			
				<linearGradient id="SVGID_7_" gradientUnits="userSpaceOnUse" x1="316.0653" y1="-67.4095" x2="316.3109" y2="-67.4095" gradientTransform="matrix(1 0 0 1 0 328.0111)">
				<stop  offset="0" style="stop-color:#CC0B36"/>
				<stop  offset="1" style="stop-color:#FBBA00"/>
			</linearGradient>
			<path class="st6" d="M316.1,260.5c0,0.1,0.1,0.1,0.1,0.2c0,0,0.1,0,0.1-0.1L316.1,260.5z"/>
			
				<linearGradient id="SVGID_8_" gradientUnits="userSpaceOnUse" x1="220.7908" y1="-60.7501" x2="221.2251" y2="-60.7501" gradientTransform="matrix(1 0 0 1 0 328.0111)">
				<stop  offset="0" style="stop-color:#CC0B36"/>
				<stop  offset="1" style="stop-color:#FBBA00"/>
			</linearGradient>
			<path class="st7" d="M221.2,267.7c-0.1-0.3-0.2-0.6-0.2-0.9C221.1,267.5,220.4,267.8,221.2,267.7z"/>
			
				<linearGradient id="SVGID_9_" gradientUnits="userSpaceOnUse" x1="319.9868" y1="-59.5095" x2="320.7652" y2="-59.5095" gradientTransform="matrix(1 0 0 1 0 328.0111)">
				<stop  offset="0" style="stop-color:#CC0B36"/>
				<stop  offset="1" style="stop-color:#FBBA00"/>
			</linearGradient>
			<path class="st8" d="M320.7,268.6l-0.8-0.2C320.2,268.5,320.5,268.6,320.7,268.6z"/>
			
				<linearGradient id="SVGID_10_" gradientUnits="userSpaceOnUse" x1="256.192" y1="-60.3595" x2="256.3707" y2="-60.3595" gradientTransform="matrix(1 0 0 1 0 328.0111)">
				<stop  offset="0" style="stop-color:#CC0B36"/>
				<stop  offset="1" style="stop-color:#FBBA00"/>
			</linearGradient>
			<path class="st9" d="M256.3,267.6l-0.2,0.1C256.2,267.7,256.3,267.7,256.3,267.6z"/>
			
				<linearGradient id="SVGID_11_" gradientUnits="userSpaceOnUse" x1="317.1483" y1="-59.7595" x2="317.677" y2="-59.7595" gradientTransform="matrix(1 0 0 1 0 328.0111)">
				<stop  offset="0" style="stop-color:#CC0B36"/>
				<stop  offset="1" style="stop-color:#FBBA00"/>
			</linearGradient>
			<path class="st10" d="M317.7,268.6c-0.1-0.4-0.3-0.6-0.5-0.7c0,0.1-0.1,0.1-0.1,0.3L317.7,268.6z"/>
			
				<linearGradient id="SVGID_12_" gradientUnits="userSpaceOnUse" x1="220.986" y1="-61.2095" x2="220.986" y2="-61.2095" gradientTransform="matrix(1 0 0 1 0 328.0111)">
				<stop  offset="0" style="stop-color:#CC0B36"/>
				<stop  offset="1" style="stop-color:#FBBA00"/>
			</linearGradient>
			<path class="st11" d="M221,266.8L221,266.8L221,266.8z"/>
			
				<linearGradient id="SVGID_13_" gradientUnits="userSpaceOnUse" x1="199.6819" y1="-64.3555" x2="331.9149" y2="-64.3555" gradientTransform="matrix(1 0 0 1 0 328.0111)">
				<stop  offset="0" style="stop-color:#CC0B36"/>
				<stop  offset="1" style="stop-color:#FBBA00"/>
			</linearGradient>
			<path class="st12" d="M330.6,258.8c0.2,0.9,0.3,0.7-0.3,1.5l1.4-0.6l-0.9,1.3c0.4,0,0.9-0.5,1.1-0.4c-0.4,0.7-0.4,0.5-0.2,1.2
				c-0.6-1.3-1.1,0.8-1.8-0.1l0-2.2c-1-1-1.7,1.1-3,0.6l0.4,0.4c-0.2,0.9-0.8,0.1-1.2,0.5c0-0.7-0.2-1-0.4-1.4c0,0.5-0.9,0-1,1.4
				l-0.6-0.9c-1-0.4-1.2,2-2.2,1.8c0.3-0.8-0.1-1.3,0.5-1.8c-0.3,0-0.6-0.1-0.6,0.4c-0.2-0.4-0.9,1-1.2,0.3c-0.1,0.3-0.2,1.1-0.6,1
				c0-0.1,0-0.4,0-0.4c0,0.4-0.6,0.5-0.2,1.3c-1-2.2-2.8,0.2-3.7-1.8c-0.7,0.2-1.6,0.5-2.2,0.5c0-0.2,0-0.4,0.1-0.3
				c-0.9-0.7-0.6,2.1-1.6,1.3c-0.5-1.2,0.6-0.6,0.2-1.1c-0.1-2.4-1.3,0.3-1.9-1.1l0.2-0.1c-0.5-0.8-1.3,0.9-2.2,0.7c0,0,0-0.2,0-0.4
				c-0.6,1.2-1.7,1.6-2.5,1.9c0.2-0.9,0.4-0.5,0.2-1.4c-0.4,0.1,0.1,1.5-0.6,1.8c-0.2-0.5-0.8-0.9-0.8-2l0.7-0.1
				c-0.3-1.3-0.9,0-1.3-0.2l0-0.6c-1.1,0.2-1.1,1.6-2.2,1.5l0.1,0.4c-0.6,1.4-0.5-0.8-1.1,0.3l-0.2-1.4c-0.4,0.3-1.5,1.4-2.2,1.7
				c0.4-1.1,1.3-1.6,1.8-2.2c-0.4,0-1.4,0.1-1.6,0.8c0.2-0.1,0.4-0.5,0.6-0.3c-0.5,1.1-1.2,1.7-2,1.7c0.1-2.8-2.2-0.7-2.7-2.9
				c-1.5,1-2.9-0.4-4.6-0.3c0.6,2.2-0.5,0.1-0.4,2.3c-0.4,0.1-0.6,0.1-0.6,0l-1.2-1.3c-0.3-0.6,0.4-0.5,0.3-1
				c-0.9-0.2-0.3-0.9-0.9-1.5c0.1,0.8-0.3,1.1-0.8,0.8l0.7,1c-1.2,1.2-1-1.9-2.3-0.7l0.4-0.7c-0.6,0.4-2.3,0-2.9,1.8
				c-0.1-0.3-0.2-0.9,0-1c-1.5-0.3-3.3,1.9-4.5,0.8l0.1-0.5c-0.3,0.2-0.5,1-0.8,0.5c0-0.2,0.1-0.5,0-0.6c-0.1,0.2-0.7,1-1.1,0.6
				l0.3-0.6c-1.5-0.7-2.2,1.5-3.4,1.9c0-1.6-1.1-2.1-1.7-2.4l0-0.2c-1.7-0.2-2.9,1.3-4.4,2c-1-1.7-3.3-0.7-4.9-1.7
				c0.2,0.3,0,1.2-0.3,1.4c-0.4-0.3-1,1.1-1-0.4h0.1c-0.3-1.4-1-1.1-1.6-1.1l-0.1,1.9c-1.5-2.8-4,1-4.9-1.5c-0.4,0.5-0.8,0.5-1.2,1
				l0-1c-1-0.3-1.5-0.4-2.8-0.1l0.2-0.7c-0.7-0.1-0.9,3-1.6,3l-0.2-1.5c-1.3,0-2.5-1.3-3.8,0.1c0-0.2,0.1-0.7,0.2-0.7
				c-0.6,0-2.3-1-2,1.1c0-1.4-1.3-0.1-2,0.5l0.1-1c-0.6,1.3-0.6,1.7-1.4,2c-0.2-0.1-0.2-0.8,0.1-0.6c-0.6-0.5-0.5,1-1.3,0.4l0.3-0.6
				c-0.7-0.1-0.6,0.3-0.9,1c-0.4,0.4-1.2-0.3-1.3-1.2c-0.1,0.6-0.5,1.3-0.8,1c0-0.3,0.1-0.6,0.2-0.7c-1.1-0.7-1.6,1.2-2.4,0.2
				c0-0.3-0.1-0.5-0.1-0.6c0.9,0,1.6,0.1,1.5,0.2c0-0.9-0.7-1.1-0.1-2.4c-0.6,0.7-1.5,2.2-2.2,1.8c0-0.1-0.1-0.2-0.1-0.3l0.1-0.1
				c-0.2-0.1-0.3,0-0.4,0.2c-0.2-0.2-0.3-0.3-0.6-0.3c-0.1-0.8-0.8-0.4-1.1-0.5c0,1-0.4,0.9,0,1.7c-0.1-0.1,0.1-0.1,0.3-0.2
				c0.1,0,0.1,0,0.1-0.1c0,0,0,0.1,0,0.1c0.2,0,0.5,0,0.9-0.1c-0.3,0.5-0.6,1-0.9,0.4c-0.2,0.7-0.4,1.3-0.5,1.7
				c-0.5-1.4-1.4-2.2-1.5-3.1c-1,0.6-2.5,0.4-3.2,2.3c-0.3,0.2-0.3-0.6-0.5-0.9c0.2-0.2,0.4-0.2,0.5-0.4c-0.6,0.5-1.8,0.2-1.9,1.5
				c-0.8-0.6,0.4-1.2-0.6-1l0.1-0.4c-2-2.1-3.3,3.4-5.6,0.7c0.2,0.2,0.2,0.2,0.3,0.5c-2.6-1.2-5.3,1.1-7.9-0.8
				c-0.7-0.4-0.8,0.5-1.3,1.1l-0.2-1.1l-0.8,1.3c-1.1,0.9-1.9-2.7-3.2-0.9l0.2,0.7c-0.5-0.1-1.6,0.4-1.5-0.4c0,0.1-0.2,0.8-0.3,0.4
				v-0.6l-1.2,1c-0.9-0.4,0.1-2.3-1.2-2.4c-0.5,0.2-1.4,1.7-1.3,2.1c0.2,0,0.5,0.4,0.5,0.9l-0.5,0.3c-0.1,1.7-0.5,3.4,0.7,4.6l0.8-1
				l0.2,0.8l-0.7,0.1c0.4,0.8,0.6,0.1,0.9-0.4c0.1,0.4,0.2,0.7,0.3,0.9l0.8-1.6c0.1,0.7-0.3,1.3,0.2,1.7c0.3-0.8-0.3-1.5,0.2-2
				c0.4,0.8,0.3,1.4,0.7,0.7c0.1,0.4,0,0.7-0.2,0.9c0.4-0.5,1-0.2,1.3-1.1c0.4,1,1.3-0.2,1.3,1.4c0.1-0.4,0.7-1.3,1-1.3
				c-0.7,1.9,1.4,0.1,1.2,2.2c0.5-1.7,1.8-0.8,2.6-1.7c0,0.1-0.1,0.4-0.2,0.3c0.5,0.1,0.6,0.7,0.9,1c0.1-1.4,0.8-1.8,1.3-2.6
				c0.6,1.4-0.3,1.7-0.2,3c0-1.2,1-1.2,0.8-2.1c0.5,0.9,0.4,0.4,0.6,1.6c0.1-1.8,0.4-0.3,0.8-1.4c0.7,0.9,0.2,1.7,0.9,1.1
				c0.3,0.5-0.3,1.2-0.3,1.2c0.7,0,0.3-1.3,0.5-2.1c0.9-0.4,0.4,1,0.7,1.7c0.6-0.4,1-1.6,1.4-1.5c0,0.2,0.1,0.3,0,0.6
				c0.6-1.1,1.7-0.1,2.4-1.4c0,0.1,0.1,0.2,0.1,0.3c-0.1-0.7-0.1-1.4-0.1-1.8c0.3,0,0.6-0.8,0.7,0c-0.2,0-0.2,0.3-0.3,0.6l0.3-0.4
				c0.3,1.3-0.5,0.4-0.5,1.4c0.7-0.4,1.5-1.5,2-1.1c0.1,1.2-1.2,0.4-0.5,1.5l-0.8-0.5c0.6,2-0.5-0.1,0.1,2c1.1,0.4,1.2-0.6,2.3-0.3
				c0.2-0.7-0.1-1,0.2-1.7c1.5-1.2,1.2,3.1,2.3,1.5c0.3-0.8,0.4-2.4,1.2-1.6l-0.3,1.4c1,0.1,0.6-2,1.7-1.1c-0.2,0.5-0.8,0.5-0.7,0.6
				c0.7,1.1,0.5-0.8,1-0.8l0.1,1.2c1.1-0.2,2.3-1.1,3.5-1.3c-0.1,0.4-0.3,0.8,0,1.1c1.5-0.6,3.3,0.2,4.7,0.9l0.6-1.1
				c0.1,0,0.2,0.5,0.1,0.7c0.6,0.4,0-0.7,0.3-1.1c0.3-0.1,0.4,0.6,0.2,0.9c1-0.9,2.9-2,4-0.8l-0.2,0.3c0.8,0.4,0.9-2.2,1.7-1.2
				l-0.1,0.2c1.8,0.5,3.8-0.5,5.2,1.1c0.3-1.5,1.8,0.7,1.9-1.5c1,1.1,0.7,1.4,2.2,2.2c0.4,0.1,0.6-1.3,1-1.6v1.1l0.7-1.2l0.3,1.3
				l0.5-0.3c-0.2-0.1-0.4-0.5-0.3-0.8c0.7-0.5,1.7,0.8,1.7,1.4l1.7-0.9c0,0.5-0.3,0.6-0.5,0.9c0.9-1.1,0.2,1.2,1,0.1
				c-0.1-0.3,0.1-0.7,0.1-0.9c0.4,0.7,1.3,0.7,2,0.4l-0.1,0.8c1.2,0.2,2.6-0.4,4-0.4c-0.5-0.4-0.4-1.7,0-1.8l0.2,1.2
				c0.3-0.7-0.4-0.4,0.1-1.3c0.5,0.1,0.3,1.3,0,1.7l0.6-0.4c0,0.4-0.1,0.5-0.1,1c0.2-0.7,1.1,1.2,1.5-0.1l0,0.4c1.4,0,2-0.4,3.1-0.5
				c0-1,0.5-0.8,0.8-1.6c0.8,0.3,1.7,1.1,2.7,1c0.7-0.5,0.2-0.9,0.5-1.5c0,0.9,1,0.8,0.5,1.5c1.2-0.2,1.5-0.2,3-0.9
				c-0.2-0.4-0.3-0.5-0.2-0.9c0.3-0.2,0.6,0.4,0.6,0.8l-0.1,0.1c1.7-1.4,3.9,2.7,5.3,0.8l-0.1,0.1l1.4-1c0.7,0.2-0.4,0.7,0.1,1.3
				c1.5-1.6,2.4,0.2,3.6-0.8c1,2.8,3.4-0.2,4.7,1.6l-0.1-0.6c0.3-0.6,0.4,0.4,0.7,0.5c0-0.5-0.4-0.6-0.1-0.9
				c2.8-0.8,5.9,0.9,8.8,1.5c1.1,0.2,0.6-3.4,1.9-1.8l-0.4,1.2c2.2-1.4,4.4,0,6.5-1.2c-0.1,0.3-0.1,0.6-0.3,0.6
				c0.5,0.9,1.6,0,1.7-0.7c0.3,0.1,0.1,0.6,0.3,1c0.5,0.5,1.1-1.1,1.4-0.2c0,0.1-0.1,0.3-0.2,0.4c0.3-0.4,1.4,0.1,1.1-0.9
				c0.8,0.5,1.5-0.4,2.2,0.1c0.4-1.1,1.4,0.5,1.5-1.1c-0.1,1.6,1.4,1.3,1.9,0.6c-0.2,0.5,0.5,0.5,0.2,1.2c0.6,0,1.1-0.3,1-1.2
				c1,2,2.1-1.6,2.7,0.9c1.7-0.9,3.3-1.5,4.8-1.9c-0.1,1.6-1.7,0.2-1.6,1.9c1.5-0.7,2.3-2.1,3.7-1.7c0.4,0.2-0.2,0.7-0.3,1
				 M233.2,266.1C233.2,266.2,233.2,266.2,233.2,266.1c-0.1,0-0.3,0.1-0.3,0.1C232.9,266.2,233,266.2,233.2,266.1z M234.6,266.1
				c-0.2,0-0.4,0-0.6,0c0-0.4,0-0.7,0.1-0.7C234.1,265.6,234.4,265.8,234.6,266.1z M231.5,259c0.2-0.1,0.3,0.1,0.3,0.3
				c-0.1,0-0.2,0.1-0.4,0.1l0,0.1C231.5,259.4,231.5,259.2,231.5,259z"/>
			
				<linearGradient id="SVGID_14_" gradientUnits="userSpaceOnUse" x1="231.0601" y1="-67.4595" x2="231.2791" y2="-67.4595" gradientTransform="matrix(1 0 0 1 0 328.0111)">
				<stop  offset="0" style="stop-color:#CC0B36"/>
				<stop  offset="1" style="stop-color:#FBBA00"/>
			</linearGradient>
			<path class="st13" d="M231.1,260.4c0,0,0,0.1-0.1,0.1c0,0.1,0.1,0.2,0.1,0.2c0-0.1,0.1-0.2,0.1-0.3
				C231.2,260.4,231.2,260.4,231.1,260.4z"/>
			
				<linearGradient id="SVGID_15_" gradientUnits="userSpaceOnUse" x1="254.6201" y1="-60.0595" x2="254.7494" y2="-60.0595" gradientTransform="matrix(1 0 0 1 0 328.0111)">
				<stop  offset="0" style="stop-color:#CC0B36"/>
				<stop  offset="1" style="stop-color:#FBBA00"/>
			</linearGradient>
			<polygon class="st14" points="254.7,268.1 254.7,267.8 254.6,268.1 			"/>
			
				<linearGradient id="SVGID_16_" gradientUnits="userSpaceOnUse" x1="320.7652" y1="-59.4095" x2="320.852" y2="-59.4095" gradientTransform="matrix(1 0 0 1 0 328.0111)">
				<stop  offset="0" style="stop-color:#CC0B36"/>
				<stop  offset="1" style="stop-color:#FBBA00"/>
			</linearGradient>
			<path class="st15" d="M320.8,268.6L320.8,268.6C320.8,268.6,320.8,268.6,320.8,268.6L320.8,268.6z"/>
			
				<linearGradient id="SVGID_17_" gradientUnits="userSpaceOnUse" x1="316.9368" y1="-67.8975" x2="317.2438" y2="-67.8975" gradientTransform="matrix(1 0 0 1 0 328.0111)">
				<stop  offset="0" style="stop-color:#CC0B36"/>
				<stop  offset="1" style="stop-color:#FBBA00"/>
			</linearGradient>
			<path class="st16" d="M316.9,259.6l0.1,1.1C317.3,260.5,317.3,259.2,316.9,259.6z"/>
			
				<linearGradient id="SVGID_18_" gradientUnits="userSpaceOnUse" x1="301.5316" y1="-67.5278" x2="302.3535" y2="-67.5278" gradientTransform="matrix(1 0 0 1 0 328.0111)">
				<stop  offset="0" style="stop-color:#CC0B36"/>
				<stop  offset="1" style="stop-color:#FBBA00"/>
			</linearGradient>
			<path class="st17" d="M302.3,260.8c-0.2-0.6-0.6-0.9-0.8-0.4C301.8,260.5,302.2,260.9,302.3,260.8z"/>
			
				<linearGradient id="SVGID_19_" gradientUnits="userSpaceOnUse" x1="258.3577" y1="-69.3095" x2="258.9105" y2="-69.3095" gradientTransform="matrix(1 0 0 1 0 328.0111)">
				<stop  offset="0" style="stop-color:#CC0B36"/>
				<stop  offset="1" style="stop-color:#FBBA00"/>
			</linearGradient>
			<polygon class="st18" points="258.6,258.9 258.9,258.5 258.4,258.8 			"/>
		</g>
		<g>
			
				<linearGradient id="SVGID_20_" gradientUnits="userSpaceOnUse" x1="118.4597" y1="-300.0397" x2="120.6044" y2="-72.7001" gradientTransform="matrix(1 0 0 1 0 328.0111)">
				<stop  offset="0" style="stop-color:#CC0B36"/>
				<stop  offset="1" style="stop-color:#88092F"/>
			</linearGradient>
			<path class="st19" d="M213.7,251.7c-1.2-0.8-2.1-1.7-2.3-3.3l2.6-1.9c0.1-1.5,0-2.7-1.1-3.9c-1.8-1.9-3.3-4-4.8-6.1
				c-0.7-0.9-1.1-2-0.5-3.2c1.3-2.5-0.9-4.5-3.4-8.6c-0.8-1.4-2-4.5-2.5-6c-1.1-3.8-0.3-5.4-1.4-7.5c-1-2,0.1-4.8-1.1-6.3
				c-0.5-0.6-0.6-1.1-0.4-1.9c0.2-1.2-0.4-1.7-1.5-1.5c-0.7,0.1-1.3,0.3-2,0.5c0.8,3.3,2,6.4,2.3,9.7c-1.8-4.5-3.3-9-4.9-13.5
				c-0.6-1.5-0.4-2.8,0.5-4.6c0.6,1.8,1,3.1,1.4,4.5c0.2,1,0.6,1.7,1.8,1.5s1.6-0.8,1.2-2.1c-0.7-2.4-1.3-4.9-2.3-7.2
				c-1.4-3.4-2-7-2.6-10.5c-0.6-3.1-0.7-6.3-1-9.5c-0.1-1-0.4-2.1-0.5-3.1c-0.2-2-0.8-4.1-0.5-6c0.6-4.2-0.8-6.1-2.2-12.5
				c-0.8-3.9,2.9-2.7,1.1-6.4c-1-2-2-3.9-2-6.2c0-0.8-0.1-1.7-0.5-2.4c-1.4-2.5-0.9-5.2-1.3-7.8c-0.9-6.4-0.5-6.7-2-15.5
				c-0.2-1.4-0.6-2.8-0.8-4.3c-1.5-13-1.5-14.7-0.7-16.4c1-2.4-1.3-3.9-1.7-7.5s-0.1-7.6-0.6-9.6c-0.3-1.3-0.9-1.7-2.2-1.8
				c-1.4-0.1-2,1-2.9,1.8c-0.7-0.3-1.3-0.5-1.9-0.8c-0.2,0.3-0.3,0.5-0.4,0.7c-1.7,1.9-1.8,3.9-0.8,6.5c1.3,3.2,2,6.6,2.9,10
				c0.2,0.8,0.3,1.6,0.4,2.5c-2.2-0.1-3.4-1-3.9-2.8c-0.1-0.5-0.3-0.9-0.6-1.3c-1.1-1.4-1.3-2.8-0.5-4.5c0.7-1.6,0.4-2.3-1-3.4
				c-1.1-0.9-2.3-1.2-3.4,0c-2.1,2.1-5.5,2.4-7,5.2c-0.2,0.3-0.6,0.4-1,0.6c-8.5,4.3-9.1,10.2-14.5,11.1c-0.3,0.1-0.5,0.4-0.7,0.6
				c-0.9,0.8-1.9,1.6-2.8,2.5c-1.3,1.2-2.9,1.6-4.7,1.8c-0.6-1-1-2.1-1.7-2.7c-0.7-0.6-1.8-0.7-2.9-1.1c0.6-0.7,1.1-1,1.2-1.5
				c0.2-0.4,0.2-1.2-0.1-1.5c-1.6-1.5-2-4-4-5.1c-0.3-0.2-0.6-0.6-0.7-0.9c-2.9-5.7-3.5-7.8-10.6-18.8c-4-6.3-3.4-4.9-6.3-8.3
				c-1-1.1-1.7-2.5-2.8-3.3c-2.5-1.8-3.9-4.5-5.8-6.8c-1-1.3-1.9-2.3-3.7-2c-1,0.2-1.9-0.1-2.5-1.1c-1.2-1.9-2.3-3.9-3.5-5.8
				c-0.7-1.1-1.5-2.1-3.3-1.9c-0.1,0.6-0.1,1.1-0.2,1.6c-1.1,4.3-3.9-2.4-7.8,0c-5.7,3.5-6.5,4.5-8.2,4.9c-5.6,1.4-8.3,6.3-15.6,9.2
				c-1.4,0.6-3.8,2.6-4.8,3.2c-2.4,1.3-4.9,2.5-6.4,5c-0.1,0.2-0.3,0.4-0.5,0.4c-2.9,1-5,3.1-7.1,5.2c-0.8,0.9-1.8,1.4-3.1,1.2
				c-2.8-0.3-3.9,1.3-2.6,3.9c0.9,2,1.3,3.2,3.2,4.7c1.3,1.1,2.7,2,4.1,3c0.3,0.2,0.4,0.7,0.7,1.3c-1-0.5-1.7-0.8-2.5-1.1
				c-0.5,1.4-1.1,2.3-2.5,2.4c-1.5,0.1-2.4,1.2-2.7,2.6c-0.3,1.5,0.5,2.5,1.6,3.3c2.4,1.7,4.3,4.2,7.2,5.3c0.5,0.2,1,0.6,1.4,1
				c1.5,1.7,7.9,8.5,10,13.7c1.2,3,2.9,5.6,4.5,8.3c2.8,4.5,5.8,8.8,9.7,12.4c0.9,0.8,1.6,1.9,2.1,3c0.3,0.5,0.2,1.4-0.1,2
				c-0.2,0.5-0.8,0.9-1.3,1.3c-1.6,1.1-3,2.3-3.6,4.2c-0.3,0.9-1,1.4-2,1.3c-1.1-0.1-1.8,0.6-2.7,1.1c-3,1.9-5.1,5.1-8.7,6.3
				c-0.6,0.2-1.1,0.9-1.6,1.3c-2.6,2.2-3,3.1-9.6,6.3c-1.8,0.9-2.9,2.4-3.3,4.3c-0.8,4.1-6.3,0.8-9,0.9c-2.3,0.1-3.7,2.4-2.4,4.4
				c1,1.7,2.6,3.1,4,4.5c0.5,0.6,1.3,1,1.8,1.4c-0.3,2.5-0.4,2.6,1.6,3.7c10.8,6.2,15,7.2,37.4,16.6c1.3,0.5,2.5,1.4,3.8,2
				c14.9,6.8,15.9,6.3,19.5,8.7c3.3,2.1,9.1,4.5,15.6,7.4c0.4,0.2,0.8,0.3,1.1,0.6c2.4,2.5,5.5,3.6,8.6,4.9c0.6,0.2,1.3,0,2.1-0.1
				c0.9,2.1,2.2,2.7,4.8,2.6c1.7,2.4-1.2,0,10.6,7.7c2.4,1.6,3.9,2.8,6.6,4.4c0.2,0.1,0.4,0.1,0.7,0.1c0-0.6,0-1.2,0-1.7
				c0.1-0.1,0.3-0.2,0.4-0.3c1.6,3.4,3.3,6.7,7.9,5.3c0,0.8,0,1.4,0,2c3.4,2.3,5.4,3.9,7.1,4.1c1.2,0.1,2,0.7,2.8,2
				c1-1.5,1.8-0.7,2.9-0.2c1.3,0.6,2.3,2.2,4.1,1.9c-0.1-0.4,0-0.9-0.2-1.1c-0.6-0.8-1.4-1.6-2.1-2.4c-0.1-0.1-0.1-0.4-0.2-0.7
				c1.2,0,0.7,0.1,2.1-0.4c0.8,0.7,1.6,1.3,2.3,1.9c3.1,2.2,2.5,1.5,4.3,0.6c0.8,1.5,1.5,3,3.4,3.2c0.3,0,0.5,0.4,0.7,0.6
				c4.3,5.8,5.2,7.5,7,8.2c2.3,0.9,4.2,2.3,5.7,4.4c1.6,2.3,3.8,3.9,6.4,5c1.3,0.5,2.4,1.5,3.6,2.4c0.8,0.6,14.6-7.3,14.2-7.6
				c0.2-0.7,0.4-1.3,0.7-1.9C217,255.6,216.4,253.5,213.7,251.7z M182.3,193.8c-0.8,2.1-0.9,4.1-0.3,6.3c0.7,2.3,0.3,2.7-1.9,3.3
				c-3.4,0.9-6.9,0.8-10.4,0.4c-0.1,0-0.2,0-0.2,0c-4.1-0.4-5.6,1-6.1,5.1c-0.3,2.2-0.8,4.3-1.4,6.4c-0.1,0.4-1,0.8-1.5,0.8
				c-4.3-0.3-8.5-0.6-12.8-1.1c-1.3-0.1-2.5-0.4-3.7,0.2c-1.4,0.6-2.5,0.2-3.6-1.1c-1.4-1.9-1.5-1.7-3.7-1.1c-0.6,0.2-1.5,0-1.9-0.4
				c-1.7-1.7-4-2.5-5.9-3.8c-1.8-1.2-3.9-2-5.6-3.6c-1.3-1.3-3.2-2.1-4.7-3.4c-0.9-0.7-2.4-0.7-2.6-2.3c0-0.1-0.1-0.2-0.1-0.2
				c-2.2-0.6-2.9-3-4.7-3.9c-1.2-0.6-2.8-0.6-4.1-0.9c-0.3-0.1-0.8,0-0.9-0.2c-1-1.9-2.3-1.2-3.5-0.5c-0.8-0.4-1.5-1-2.3-1.1
				c-1.3-0.3-2-1.1-2.6-2.3c-0.9-2.1-1.5-2.2-3.5-1.4c-1.9,0.8-1.9,0.8-3.1-1c-0.5-0.7-1-1.3-1.5-1.9c-0.3-0.3-0.9-0.5-1.3-0.4
				c-1.5,0.4-2.9,0.9-4.6,1.5c0.4,0.7,0.7,1.3,1.2,2c-1.8,0.3-2.8-0.6-4-1.4c-2.3-1.5-4.7-2.8-7.5-3.4c-1.8-0.4-3.5-1.5-5.1-2.5
				c-1.1-0.7-2.1-1.5-3.5-1.2c-0.8,0.2-1.4-0.2-1.8-0.8c-1.5-2.2-3.5-3.2-6.1-3.3c-0.5,0-1-0.1-1.4-0.4c-2.8-1.7-5.6-3.4-7.6-6.4
				c0.5-1.2,1.4-1.8,2.4-2.4c0.9-0.5,1.8-1,2.8-1.3c3-0.9,5.3-3,7.9-4.4c1.9-1,3.9-1.9,5.9-2.7c2.5-0.9,4-2.5,4.4-5.3
				c0.3-1.9,1.3-3,3.2-3.5c2.9-0.7,5.5-4.6,5.8-7.8c0.1-1,0.8-2,1.3-2.9c0.2-0.5,0.8-0.8,0.9-1.3c0.4-1.9,0.6-3.7,0.9-5.6
				c0-0.2,0-0.4,0.1-0.5c1.9-2.4,0.2-4.4-1.3-5.9c-4.4-4.3-8-9.4-11.9-14.2c-4.5-5.5-8.7-11.1-13.1-16.7c-1.1-1.3-2.2-2.6-3.4-3.9
				c-1.5-1.7-3-3.4-4.5-5.1c-1.6-1.9-3.2-3.9-4.7-5.9c-0.4-0.6-0.8-1.2-1.2-1.8c-0.6-0.9-0.5-1.8,0.4-2.3c1.1-0.6,2.2-1.1,3.3-1.6
				c1-0.5,2.1-0.7,2.9-1.5c2.5-2.5,5.8-3.7,8.7-5.4c4.2-2.4,8.5-4.7,12.7-7c2.4-1.3,4.7-2.8,7-4.2c1.2-0.8,2.4-1.8,3.4-2.7
				c1.4-1.3,2.4-1.4,3.6,0.2c2.5,3.1,5,6.2,7.4,9.4c1.7,2.4,3.1,4.9,4.7,7.4c1.4,2.2,2.9,4.3,4,6.6c1.9,3.9,5.5,6.2,8,9.4
				c1.5,1.9,3,3.6,4.4,5.5c2,2.7,3.9,5.4,6.2,7.8c2.6,2.8,4.8,6.1,7.1,9.3c0.8,1.1,1.3,2.4,1.8,3.7c0.8,1.9,2.3,3.2,3.9,4.3
				c1.1,0.8,2.6,0.1,2.7-1.5c0.2-1.8,1.3-2.1,2.6-2.8c3.3-1.6,6.6-3.1,9.4-5.6c1.3-1.1,2.7-2.1,4.1-3.1c2.1-1.6,4.1-3.3,6.2-5
				c0.5-0.4,1-0.9,1.5-1c1.9-0.1,3.1-1.3,4.3-2.6c0.3-0.3,0.6-0.7,1-1c1.2-0.9,1.9-0.6,2.6,0.7c1.2,2.5,0.8,5.2,1.1,7.8
				c0.1,0.6-0.6,1.4-1.2,1.9c-1.5,1.3-1.7,2.8-1.2,4.7c1,4.1,1.8,8.2,2.6,12.3c0.1,0.5,0.1,1,0.1,1.4c0,0.1-0.2,0.2-0.4,0.5
				c-1.1-0.2-2.2-0.8-2-1.9c0.4-1.9-0.7-2.6-2.2-3.3c0.4-0.6,0.7-1.1,1-1.7c-0.4-0.5-0.8-1-1.2-1.5c-0.9-1.1-1.4-2.2-0.9-3.6
				c0.2-0.5,0.1-1.2-0.2-1.6c-0.7-1.3-1.6-2.5-2.7-4.1c-0.2,1.9-0.3,3.4-0.5,5.1c0.4,0,0.6,0,0.9,0c0.2,0,0.4,0,0.9,0
				c0,0.6,0.1,1.2-0.1,1.6c-0.6,1.4-0.4,2.8,0.1,4.2c0.4,1.1,0.6,2.2,1,3.3c0.6,1.6,1.3,3.1,1.9,4.7c0.4,0.9,0.9,1.8,1.2,2.7
				c1.4,4.1,2.7,8.3,4.3,12.4c1.5,3.8,3.2,7.4,4.8,11.1c1,2.3,1.9,4.7,2.8,7c0.1,0.2,0.2,0.5,0.1,0.7c-0.4,2.7,0.9,5.2,1.5,7.8
				c0.1,0.5,0.4,1,0.6,1.6c0.2,0.7,0.6,1.5,0.5,2.2c-0.4,2.7,0.7,5,1.5,7.4c1,3.2,1.8,6.6,2,10C183.8,189.8,183,191.9,182.3,193.8z"
				/>
			
				<linearGradient id="SVGID_21_" gradientUnits="userSpaceOnUse" x1="190.8179" y1="-296.6958" x2="192.9268" y2="-73.1567" gradientTransform="matrix(1 0 0 1 0 328.0111)">
				<stop  offset="0" style="stop-color:#CC0B36"/>
				<stop  offset="1" style="stop-color:#88092F"/>
			</linearGradient>
			<path class="st20" d="M192.6,153.1c-0.1-1-0.2-1.7-0.3-2.3c-0.3,0-0.6,0.1-0.9,0.1C191.3,151.6,191.1,152.3,192.6,153.1z"/>
			
				<linearGradient id="SVGID_22_" gradientUnits="userSpaceOnUse" x1="190.8358" y1="-296.696" x2="192.9446" y2="-73.1568" gradientTransform="matrix(1 0 0 1 0 328.0111)">
				<stop  offset="0" style="stop-color:#CC0B36"/>
				<stop  offset="1" style="stop-color:#88092F"/>
			</linearGradient>
			<path class="st21" d="M192.1,148.7c-0.1,0-0.1-0.1-0.2-0.1c-0.1,0-0.1,0.1-0.1,0.2c0.1,0,0.2,0.1,0.3,0.1
				C192.1,148.8,192.1,148.7,192.1,148.7z"/>
			
				<linearGradient id="SVGID_23_" gradientUnits="userSpaceOnUse" x1="81.2533" y1="-295.6621" x2="83.3621" y2="-72.1231" gradientTransform="matrix(1 0 0 1 0 328.0111)">
				<stop  offset="0" style="stop-color:#CC0B36"/>
				<stop  offset="1" style="stop-color:#88092F"/>
			</linearGradient>
			<path class="st22" d="M82.8,183.6c-1.1-0.1-1.1,0.8-1,1.7c0.8,0.2,1.6,0.6,1.8-0.4C83.8,184.6,83.1,183.6,82.8,183.6z"/>
			
				<linearGradient id="SVGID_24_" gradientUnits="userSpaceOnUse" x1="87.5577" y1="-295.7217" x2="89.6666" y2="-72.1824" gradientTransform="matrix(1 0 0 1 0 328.0111)">
				<stop  offset="0" style="stop-color:#CC0B36"/>
				<stop  offset="1" style="stop-color:#88092F"/>
			</linearGradient>
			<path class="st23" d="M88.4,184.3c0.2,0.3,0.4,0.6,0.7,0.9c0.2-0.2,0.3-0.3,0.5-0.5c-0.3-0.3-0.6-0.5-0.9-0.8
				C88.6,184,88.4,184.2,88.4,184.3z"/>
		</g>
	</g>
</g>
<g id="Calque_2_1_">
	<g>
		<g>
			<path class="st24" d="M174,106.7"/>
		</g>
	</g>
</g>
</svg>
